PathFileType	3	(X/Y/Z)	Static_01.trc
DataRate	CameraRate	NumFrames	NumMarkers	Units	OrigDataRate	OrigDataStartFrame	OrigNumFrames
200	200	4	32	mm	200	151	400
Frame#	Time	L_ASIS			R_ASIS			L_PSIS			R_PSIS			R_Knee_Med			R_Thigh_Upper			R_Knee_Lat			R_Thigh_Front			R_Thigh_Rear			L_Knee_Med			L_Thigh_Upper			L_Thigh_Front			L_Thigh_Rear			L_Knee_Lat			L_Ankle_Med			L_Shank_Upper			L_Shank_Front			L_Shank_Rear			L_Ankle_Lat			R_Ankle_Med			R_Shank_Upper			R_Shank_Rear			R_Shank_Front			R_Ankle_Lat			R_Heel			R_Toe_Tip			R_Toe_Med			R_Toe_Lat			L_Heel			L_Toe_Tip			L_Toe_Med			L_Toe_Lat			
		X1	Y1	Z1	X2	Y2	Z2	X3	Y3	Z3	X4	Y4	Z4	X5	Y5	Z5	X6	Y6	Z6	X7	Y7	Z7	X8	Y8	Z8	X9	Y9	Z9	X10	Y10	Z10	X11	Y11	Z11	X12	Y12	Z12	X13	Y13	Z13	X14	Y14	Z14	X15	Y15	Z15	X16	Y16	Z16	X17	Y17	Z17	X18	Y18	Z18	X19	Y19	Z19	X20	Y20	Z20	X21	Y21	Z21	X22	Y22	Z22	X23	Y23	Z23	X24	Y24	Z24	X25	Y25	Z25	X26	Y26	Z26	X27	Y27	Z27	X28	Y28	Z28	X29	Y29	Z29	X30	Y30	Z30	X31	Y31	Z31	X32	Y32	Z32
151	0.75	-1218.9744	1000.4716	-1908.4078	-1029.587	1003.4623	-1708.9478	-1297.6701	1045.8001	-1736.9721	-1209.6976	1054.1628	-1650.7343	-1094.2836	467.29424	-1687.2271	-1042.1898	826.29993	-1595.471	-1040.9987	502.71169	-1591.7993	-995.07239	772.74493	-1633.785	-1041.8745	760.47215	-1583.2691	-1262.0423	465.16962	-1783.8315	-1330.8941	857.85955	-1886.823	-1313.4848	785.74488	-1906.8265	-1358.0219	791.9957	-1843.8525	-1339.6292	487.1246	-1854.0789	-1300.2446	74.085478	-1799.072	-1412.2322	360.14438	-1828.2379	-1386.0861	303.16913	-1848.3309	-1413.9853	290.46884	-1807.9795	-1385.745	66.163898	-1830.7637	-1084.1097	77.654775	-1616.5893	-1072.2913	368.55404	-1521.0039	-1104.0076	308.57335	-1517.451	-1047.269	304.8731	-1535.1728	-1075.3002	63.480317	-1523.1395	-1146.1648	22.232171	-1525.5207	-956.28825	42.168941	-1629.4928	-966.65532	17.063676	-1654.2151	-963.06467	18.104955	-1535.5037	-1392.211	25.683332	-1760.0357	-1263.9273	38.20883	-1938.5591	-1239.0898	14.917965	-1924.6252	-1359.9949	10.989752	-1942.4606
152	0.755	-1218.9579	1000.458	-1908.3781	-1029.5811	1003.4641	-1708.9049	-1297.6581	1045.8045	-1736.9609	-1209.6951	1054.18	-1650.7057	-1094.2628	467.29964	-1687.211	-1042.1922	826.29988	-1595.4359	-1040.9939	502.71281	-1591.7754	-995.0729	772.74687	-1633.7451	-1041.8779	760.47233	-1583.2343	-1262.0319	465.16306	-1783.8196	-1330.8765	857.8577	-1886.8125	-1313.4566	785.74083	-1906.8171	-1358.011	791.99538	-1843.848	-1339.6154	487.11258	-1854.0834	-1300.2601	74.072812	-1799.0665	-1412.2269	360.15028	-1828.2309	-1386.0789	303.16772	-1848.3267	-1413.9788	290.46784	-1807.9797	-1385.736	66.15924	-1830.7671	-1084.1116	77.651429	-1616.5823	-1072.2882	368.55283	-1520.9853	-1104.0068	308.57137	-1517.44	-1047.2681	304.8708	-1535.1605	-1075.2988	63.479168	-1523.1367	-1146.1645	22.232664	-1525.5195	-956.28821	42.167375	-1629.485	-966.65297	17.064589	-1654.2139	-963.06348	18.102291	-1535.5007	-1392.2135	25.68575	-1760.0359	-1263.9236	38.210008	-1938.5608	-1239.0901	14.916725	-1924.6247	-1359.9877	10.992287	-1942.4592
153	0.76	-1218.9429	1000.4445	-1908.3503	-1029.576	1003.4657	-1708.8645	-1297.6465	1045.8089	-1736.951	-1209.693	1054.1974	-1650.6783	-1094.243	467.3048	-1687.1976	-1042.195	826.29965	-1595.4031	-1040.9898	502.71425	-1591.7534	-995.0745	772.74858	-1633.7076	-1041.8819	760.47243	-1583.2019	-1262.0237	465.156	-1783.8083	-1330.8601	857.85593	-1886.8019	-1313.4309	785.73698	-1906.8082	-1358.0011	791.99528	-1843.8435	-1339.6032	487.10092	-1854.0882	-1300.2792	74.058892	-1799.0606	-1412.2233	360.15576	-1828.2236	-1386.0728	303.16642	-1848.3216	-1413.9724	290.46631	-1807.9794	-1385.7285	66.154822	-1830.7698	-1084.1145	77.647439	-1616.5755	-1072.2863	368.55173	-1520.9684	-1104.0072	308.56961	-1517.4305	-1047.2679	304.86885	-1535.1493	-1075.2978	63.478384	-1523.1346	-1146.1644	22.233677	-1525.5189	-956.28885	42.165251	-1629.4787	-966.65107	17.065315	-1654.2128	-963.0624	18.100262	-1535.4983	-1392.2155	25.68738	-1760.0359	-1263.9205	38.210916	-1938.5626	-1239.0897	14.916896	-1924.6241	-1359.9785	10.99712	-1942.4586
154	0.765	-1218.9295	1000.4308	-1908.3246	-1029.5715	1003.467	-1708.8267	-1297.6353	1045.8135	-1736.9422	-1209.6911	1054.2151	-1650.6523	-1094.2245	467.30964	-1687.1866	-1042.198	826.29923	-1595.3726	-1040.9864	502.71589	-1591.7331	-995.07712	772.74998	-1633.6725	-1041.8864	760.47244	-1583.172	-1262.0178	465.14854	-1783.7975	-1330.8445	857.85415	-1886.7913	-1313.4076	785.73349	-1906.7995	-1357.992	791.99562	-1843.8387	-1339.5928	487.08983	-1854.0931	-1300.3019	74.0437	-1799.0544	-1412.2209	360.16037	-1828.2164	-1386.0678	303.16534	-1848.3157	-1413.9661	290.46437	-1807.9784	-1385.7225	66.150673	-1830.7718	-1084.1181	77.642974	-1616.5691	-1072.2857	368.55067	-1520.9531	-1104.0089	308.56796	-1517.4225	-1047.2686	304.86708	-1535.1391	-1075.297	63.477853	-1523.1332	-1146.1645	22.235049	-1525.5188	-956.2899	42.162659	-1629.4739	-966.64983	17.065673	-1654.2121	-963.06144	18.098677	-1535.4963	-1392.2171	25.688299	-1760.0357	-1263.9181	38.211425	-1938.5645	-1239.0886	14.918202	-1924.6234	-1359.9674	11.003553	-1942.4584
